<!DOCTYPE svg PUBLIC "-//W3C//DTD SVG 1.1//EN" "http://www.w3.org/Graphics/SVG/1.1/DTD/svg11.dtd">
<!-- Uploaded to: SVG Repo, www.svgrepo.com, Transformed by: SVG Repo Mixer Tools -->
<svg height="64px" width="64px" version="1.1" id="Layer_1" xmlns="http://www.w3.org/2000/svg" xmlns:xlink="http://www.w3.org/1999/xlink" viewBox="-117.78 -117.78 628.16 628.16" xml:space="preserve" fill="#000000">
<g id="SVGRepo_bgCarrier" stroke-width="0">
<rect x="-117.78" y="-117.78" width="628.16" height="628.16" rx="314.08" fill="#ffffff" strokewidth="0"/>
</g>
<g id="SVGRepo_tracerCarrier" stroke-linecap="round" stroke-linejoin="round"/>
<g id="SVGRepo_iconCarrier"> <polygon style="fill:#fff;" points="57.665,242.327 21.786,326.044 21.786,345.309 370.747,345.309 370.747,326.044 334.869,242.327 "/> <path style="fill:#FFFFFF;" d="M330.667,58.214c0-6.012-4.848-10.925-10.925-10.925H72.275c-6.012,0-10.925,4.848-10.925,10.925 v162.327h269.317V58.214z"/> <g> <path style="fill:#;" d="M391.693,319.451l-39.176-91.41V58.214c0-18.036-14.675-32.711-32.711-32.711H72.21 c-18.036,0-32.711,14.675-32.711,32.711v170.99L0.905,319.451C0.259,320.873,0,322.295,0,323.782v32.388 c0,6.012,4.848,10.925,10.925,10.925h370.747c6.012,0,10.925-4.848,10.925-10.925v-32.388 C392.533,322.36,392.21,320.873,391.693,319.451z M370.747,345.309H21.786v-19.265l35.879-83.717h277.269l35.879,83.717v19.265 H370.747z M61.349,58.214c0-6.012,4.848-10.925,10.925-10.925h247.467c6.012,0,10.925,4.848,10.925,10.925v162.327H61.349V58.214z"/> <path style="fill:#;" d="M221.867,307.943h-63.612c-6.012,0-10.925,4.848-10.925,10.925c0,6.012,4.848,10.925,10.925,10.925 h63.612c6.012,0,10.925-4.848,10.925-10.925C232.727,312.857,227.879,307.943,221.867,307.943z"/> </g> <path style="fill:#fff3c5c5;" d="M83.135,69.204v14.352h51.588c6.012,0,10.925,4.848,10.925,10.925 c0,6.012-4.848,10.925-10.925,10.925H83.135v21.721h29.802c6.012,0,10.925,4.848,10.925,10.925c0,6.012-4.848,10.925-10.925,10.925 H83.135v49.778h225.745V69.204H83.135z"/> </g>
</svg>